<?xml version="1.0" encoding="UTF-8"?>
<svg width="375px" height="386px" viewBox="0 0 375 386" version="1.1" xmlns="http://www.w3.org/2000/svg" xmlns:xlink="http://www.w3.org/1999/xlink">
    <!-- Generator: Sketch 52.6 (67491) - http://www.bohemiancoding.com/sketch -->
    <title>bg</title>
    <desc>Created with Sketch.</desc>
    <defs>
        <linearGradient x1="100%" y1="47.5%" x2="0%" y2="48.3%" id="linearGradient-1">
            <stop stop-color="#2568EF" offset="0%"></stop>
            <stop stop-color="#1054DD" offset="100%"></stop>
        </linearGradient>
        <polygon id="path-2" points="0 0 375 0 375 385 0 385"></polygon>
        <linearGradient x1="50%" y1="0%" x2="50%" y2="100%" id="linearGradient-4">
            <stop stop-color="#FFFFFF" stop-opacity="0" offset="0%"></stop>
            <stop stop-color="#FFFFFF" offset="100%"></stop>
        </linearGradient>
    </defs>
    <g id="Page-1" stroke="none" stroke-width="1" fill="none" fill-rule="evenodd">
        <g id="bg">
            <polygon id="Path" fill="url(#linearGradient-1)" points="0 0 375 0 375 386 0 386"></polygon>
            <g id="Clipped">
                <mask id="mask-3" fill="white">
                    <use xlink:href="#path-2"></use>
                </mask>
                <g id="Path"></g>
                <g id="Group" opacity="0.4" mask="url(#mask-3)" fill="url(#linearGradient-4)">
                    <g transform="translate(-164.312000, -358.919000)" id="Path">
                        <polygon opacity="0.21" transform="translate(437.682680, 300.547727) rotate(30.000000) translate(-437.682680, -300.547727) " points="330.85018 504.422227 207.70618 291.129227 314.53718 87.2542272 544.51418 96.6702272 667.65918 309.970227 560.82718 513.841227"></polygon>
                        <polygon opacity="0.21" transform="translate(365.804355, 413.684243) rotate(30.000000) translate(-365.804355, -413.684243) " points="241.568855 650.772743 98.3608548 402.731743 222.597855 165.642743 490.041855 176.594743 633.247855 424.636743 509.012855 661.725743"></polygon>
                        <polygon opacity="0.55" transform="translate(217.671500, 330.466000) rotate(90.000000) translate(-217.671500, -330.466000) " points="79.8245 548.1375 -58.0205 330.4665 79.8245 112.7945 355.5165 112.7945 493.3635 330.4665 355.5165 548.1375"></polygon>
                        <polygon opacity="0.54" transform="translate(347.668000, 350.211000) rotate(90.000000) translate(-347.668000, -350.211000) " points="232.347 532.311 117.026 350.211 232.347 168.111 462.989 168.111 578.31 350.211 462.989 532.311"></polygon>
                    </g>
                </g>
            </g>
        </g>
    </g>
</svg>