<?xml version="1.0" encoding="UTF-8"?>
<svg width="160px" height="160px" viewBox="0 0 160 160" version="1.1" xmlns="http://www.w3.org/2000/svg" xmlns:xlink="http://www.w3.org/1999/xlink">
    <!-- Generator: Sketch 52.6 (67491) - http://www.bohemiancoding.com/sketch -->
    <title>logo</title>
    <desc>Created with Sketch.</desc>
    <g id="Page-1" stroke="none" stroke-width="1" fill="none" fill-rule="evenodd">
        <g id="logo">
            <rect id="Rectangle" fill="#FFDD7B" x="13" y="51" width="98" height="88"></rect>
            <g id="delivery">
                <path d="M112.1875,100.9375 L145.9375,100.9375 L145.9375,139.375 L141.797943,139.375 C136.725413,130.451864 131.403707,126.106466 125.832825,126.338806 C120.261943,126.571147 116.039734,130.916545 113.166199,139.375 L112.1875,139.375 L112.1875,100.9375 Z" id="Rectangle" fill="#FFDD7B"></path>
                <circle id="Oval" fill="#FFFFFF" cx="61.875" cy="47.1875" r="35.3125"></circle>
                <ellipse id="Oval" fill="#ED4F43" cx="7.8125" cy="134.6875" rx="4.0625" ry="4.6875"></ellipse>
                <ellipse id="Oval" fill="#ED4F43" cx="151.875" cy="134.6875" rx="4.0625" ry="4.6875"></ellipse>
                <rect id="Rectangle" stroke="#979797" fill="#B9EAF9" x="112.34375" y="75.46875" width="22.5" height="23.75"></rect>
                <circle id="Oval" fill="#FFFFFF" cx="41.25" cy="141.875" r="14.6875"></circle>
                <circle id="Oval" fill="#FFFFFF" cx="126.5625" cy="141.875" r="14.6875"></circle>
                <path d="M85.1618231,74.8387275 L84.2380241,74.8387275 C78.0934947,79.6718806 70.3623213,82.5803609 61.9363719,82.5803609 C53.5104222,82.5803609 45.7792491,79.6718806 39.6347197,74.8381769 L38.7109206,74.8381769 L12.9045578,74.8381769 L12.9045578,116.128357 L110.968737,116.128357 L110.968737,74.8381769 L85.1618231,74.8381769 L85.1618231,74.8387275 Z" id="Path" fill="#007CAD"></path>
                <path d="M152.258917,126.451453 L149.678005,126.451453 L149.678005,98.0641787 L139.111022,98.0641787 L136.530111,72.2578159 L113.549648,72.2578159 L113.549648,49.0323647 L100.514613,49.0323647 C100.571318,48.1757309 100.646191,47.3240522 100.646191,46.4514531 C100.646191,36.0512825 96.5017581,26.6139988 89.8050416,19.6513732 L91.6141019,17.8423128 L96.241355,22.4695657 L99.8903056,18.8206148 L86.9873997,5.91715813 L83.3384487,9.56610903 L87.9657016,14.1933619 L85.9865256,16.1725379 C80.0071569,11.413707 72.6007997,8.40998397 64.5183844,7.87321162 L64.5183844,5.16127256 L72.2600181,5.16127256 L72.2600181,0 L51.6149278,0 L51.6149278,5.16127256 L59.3565612,5.16127256 L59.3565612,7.87376216 C51.2741462,8.4105345 43.8677887,11.4170102 37.8884203,16.1730884 L35.9092441,14.1939124 L40.5364972,9.56665956 L36.8875462,5.91770866 L23.9829884,18.8206148 L27.6319393,22.4695657 L32.2591922,17.8423128 L34.0682528,19.6513732 C27.3715359,26.6139988 23.2271029,36.0512825 23.2271029,46.4514531 C23.2271029,47.3235016 23.3019757,48.1751806 23.3586809,49.0323647 L10.3236462,49.0323647 L10.3236462,126.451453 L7.74328519,126.451453 C3.47498159,126.451453 0.00110107148,129.924783 0.00110107148,134.193087 C0.00110107148,138.46139 3.47443106,141.935271 7.74273466,141.935271 L10.3230957,141.935271 L15.4843682,141.935271 L23.2260018,141.935271 C23.2260018,151.893912 31.3293375,160 41.2901806,160 C51.2510237,160 59.3543591,151.894462 59.3543591,141.935271 L108.386173,141.935271 C108.386173,151.893912 116.489509,160 126.450352,160 C136.411195,160 144.514531,151.894462 144.514531,141.935271 L149.675803,141.935271 L152.256715,141.935271 C156.525018,141.935271 159.998348,138.461941 159.998348,134.193087 C159.998348,129.924232 156.527221,126.451453 152.258917,126.451453 Z M131.858815,77.4190884 L133.923324,98.0641787 L113.549097,98.0641787 L113.549097,77.4190884 L131.858815,77.4190884 Z M61.9363719,12.9034567 C80.4343728,12.9034567 95.4843681,27.9534522 95.4843681,46.4520037 C95.4843681,64.950555 80.4343728,80 61.9363719,80 C43.4383709,80 28.3883754,64.9494541 28.3883754,46.4514531 C28.3883754,27.9534522 43.4383709,12.9034567 61.9363719,12.9034567 Z M10.3236462,136.773998 L7.74328519,136.773998 C6.32125137,136.773998 5.16292416,135.617873 5.16292416,134.193087 C5.16292416,132.7683 6.32180191,131.612175 7.74328519,131.612175 L10.3236462,131.612175 L10.3236462,136.773998 Z M41.2912816,154.838177 C34.1767081,154.838177 28.3883754,149.049844 28.3883754,141.93472 C28.3883754,134.819596 34.1767081,129.031814 41.2912816,129.031814 C48.405855,129.031814 54.1941878,134.820147 54.1941878,141.935271 C54.1941878,149.050395 48.4064056,154.838177 41.2912816,154.838177 Z M41.2912816,123.870542 C33.1262859,123.870542 26.2154109,129.320845 23.9879433,136.773998 L15.4849187,136.774549 L15.4849187,126.451453 L15.4849187,54.1936372 L24.0061109,54.1936372 C27.6033115,71.8399594 43.2423803,85.1612725 61.9363719,85.1612725 C80.6303634,85.1612725 96.2688816,71.8399594 99.8666328,54.1936372 L108.387825,54.1936372 L108.387825,72.2583666 L108.387825,98.0647294 L108.387825,103.226002 L108.387825,136.774549 L58.59462,136.774549 C56.3671522,129.320845 49.4562772,123.870542 41.2912816,123.870542 Z M126.452004,154.838177 C119.33743,154.838177 113.549097,149.049844 113.549097,141.93472 C113.549097,134.819596 119.33743,129.031263 126.452004,129.031263 C133.566577,129.031263 139.35491,134.819596 139.35491,141.93472 C139.35491,149.049844 133.567127,154.838177 126.452004,154.838177 Z M144.517283,136.773998 L143.755892,136.773998 C141.528425,129.320845 134.61755,123.870542 126.452004,123.870542 C121.399187,123.870542 116.831392,125.960926 113.549097,129.318093 L113.549097,103.225451 L139.626324,103.225451 L144.516733,103.225451 L144.516733,126.451453 L144.516733,136.773998 L144.517283,136.773998 Z M152.258917,136.773998 L149.678005,136.773998 L149.678005,131.612726 L152.258917,131.612726 C153.680951,131.612726 154.839278,132.768851 154.839278,134.193637 C154.839278,135.618424 153.6804,136.773998 152.258917,136.773998 Z" id="Shape" fill="#333333" fill-rule="nonzero"></path>
                <path d="M41.2912816,134.193087 C37.0229781,134.193087 33.5496481,137.666417 33.5496481,141.935271 C33.5496481,146.203574 37.0229781,149.677455 41.2912816,149.677455 C45.5595853,149.677455 49.032915,146.204125 49.032915,141.935271 C49.0334656,137.666417 45.5595853,134.193087 41.2912816,134.193087 Z M41.2912816,144.515632 C39.8692478,144.515632 38.7109206,143.359507 38.7109206,141.93472 C38.7109206,140.509934 39.8697984,139.353809 41.2912816,139.353809 C42.712765,139.353809 43.8716425,140.509934 43.8716425,141.93472 C43.8716425,143.359507 42.7133153,144.515632 41.2912816,144.515632 Z" id="Shape" fill="#333333" fill-rule="nonzero"></path>
                <path d="M126.452004,134.193087 C122.1837,134.193087 118.71037,137.666417 118.71037,141.935271 C118.71037,146.203574 122.1837,149.677455 126.452004,149.677455 C130.720307,149.677455 134.193637,146.204125 134.193637,141.935271 C134.194188,137.666417 130.720307,134.193087 126.452004,134.193087 Z M126.452004,144.515632 C125.02997,144.515632 123.871092,143.359507 123.871092,141.93472 C123.871092,140.509934 125.02997,139.353809 126.452004,139.353809 C127.874038,139.353809 129.032365,140.509934 129.032365,141.93472 C129.032365,143.359507 127.874038,144.515632 126.452004,144.515632 Z" id="Shape" fill="#333333" fill-rule="nonzero"></path>
                <path d="M54.1947381,46.4514531 C54.1947381,50.7197566 57.6680681,54.1936372 61.9363719,54.1936372 C66.2046753,54.1936372 69.6780053,50.7203072 69.6780053,46.4514531 C69.6780053,42.1825991 66.2046753,38.7092691 61.9363719,38.7092691 C61.497595,38.7092691 61.0742328,38.7687269 60.6536234,38.8380944 L45.8304487,21.5457667 L41.9106344,24.9056863 L56.0836262,41.4399263 C54.9219959,42.7947947 54.1947381,44.531735 54.1947381,46.4514531 Z M64.5172834,46.4514531 C64.5172834,47.8734869 63.3584056,49.0323647 61.9369225,49.0323647 C60.5148884,49.0323647 59.3565612,47.8734869 59.3565612,46.4514531 C59.3565612,45.0294194 60.5154391,43.8705416 61.9369225,43.8705416 C63.3584056,43.8710922 64.5172834,45.0294194 64.5172834,46.4514531 Z" id="Shape" fill="#333333" fill-rule="nonzero"></path>
                <path d="M59.5828316,74.7225644 L60.0061934,69.5794594 C48.0656237,68.59345 38.7109206,58.4360656 38.7109206,46.4520038 C38.7109206,40.7798338 40.8013047,35.3086097 44.5972487,31.0403061 L40.7418469,27.6104684 C36.1046844,32.8234913 33.5496481,39.5147028 33.5496481,46.4514531 C33.5496481,61.1017597 44.9842753,73.5196438 59.5828316,74.7225644 Z" id="Path" fill="#333333"></path>
            </g>
        </g>
    </g>
</svg>