<?xml version="1.0" encoding="UTF-8"?>
<svg width="98px" height="98px" viewBox="0 0 98 98" version="1.1" xmlns="http://www.w3.org/2000/svg" xmlns:xlink="http://www.w3.org/1999/xlink">
    <!-- Generator: Sketch 52.6 (67491) - http://www.bohemiancoding.com/sketch -->
    <title>logo</title>
    <desc>Created with Sketch.</desc>
    <g id="Page-1" stroke="none" stroke-width="1" fill="none" fill-rule="evenodd">
        <g id="logo">
            <rect id="Rectangle" fill="#FFDD7B" x="8" y="31" width="60" height="54"></rect>
            <g id="delivery">
                <path d="M68.7148438,61.8242188 L89.3867188,61.8242188 L89.3867188,85.3671875 L86.8512402,85.3671875 C83.7443155,79.9017665 80.4847705,77.2402102 77.0726051,77.3825188 C73.6604398,77.5248273 71.0743369,80.1863836 69.3142967,85.3671875 L68.7148438,85.3671875 L68.7148438,61.8242188 Z" id="Rectangle" fill="#FFDD7B"></path>
                <circle id="Oval" fill="#FFFFFF" cx="37.8984375" cy="28.9023438" r="21.6289062"></circle>
                <ellipse id="Oval" fill="#ED4F43" cx="4.78515625" cy="82.4960938" rx="2.48828125" ry="2.87109375"></ellipse>
                <ellipse id="Oval" fill="#ED4F43" cx="93.0234375" cy="82.4960938" rx="2.48828125" ry="2.87109375"></ellipse>
                <rect id="Rectangle" stroke="#979797" fill="#B9EAF9" x="68.8105469" y="46.2246094" width="13.78125" height="14.546875"></rect>
                <circle id="Oval" fill="#FFFFFF" cx="25.265625" cy="86.8984375" r="8.99609375"></circle>
                <circle id="Oval" fill="#FFFFFF" cx="77.5195313" cy="86.8984375" r="8.99609375"></circle>
                <path d="M52.1616167,45.8387206 L51.5957897,45.8387206 C47.8322655,48.7990269 43.0969218,50.5804711 37.9360278,50.5804711 C32.7751336,50.5804711 28.0397901,48.7990269 24.2762658,45.8383833 L23.7104389,45.8383833 L7.90404162,45.8383833 L7.90404162,71.128619 L67.9683511,71.128619 L67.9683511,45.8383833 L52.1616167,45.8383833 L52.1616167,45.8387206 Z" id="Path" fill="#007CAD"></path>
                <path d="M93.2585866,77.451515 L91.6777783,77.451515 L91.6777783,60.0643095 L85.2055013,60.0643095 L83.6246929,44.2579123 L69.5491595,44.2579123 L69.5491595,30.0323234 L61.5652007,30.0323234 C61.5999325,29.5076352 61.6457921,28.985982 61.6457921,28.451515 C61.6457921,22.0814105 59.1073269,16.3010742 55.005588,12.0364661 L56.1136374,10.9284166 L58.9478299,13.762609 L61.1828122,11.5276266 L53.2797823,3.62425935 L51.0447999,5.85924178 L53.8789922,8.69343417 L52.6667469,9.90567947 C49.0043836,6.99089552 44.4679898,5.15111518 39.5175104,4.82234212 L39.5175104,3.16127944 L44.2592611,3.16127944 L44.2592611,0 L31.6141433,0 L31.6141433,3.16127944 L36.3558938,3.16127944 L36.3558938,4.82267932 C31.4054146,5.15145238 26.8690206,6.99291874 23.2066574,9.90601667 L21.994412,8.69377137 L24.8286045,5.85957898 L22.5936221,3.62459655 L14.6895804,11.5276266 L16.9245628,13.762609 L19.7587552,10.9284166 L20.8668048,12.0364661 C16.7650658,16.3010742 14.2266005,22.0814105 14.2266005,28.451515 C14.2266005,28.9856447 14.2724601,29.5072981 14.3071921,30.0323234 L6.32323329,30.0323234 L6.32323329,77.451515 L4.74276218,77.451515 C2.12842623,77.451515 0.000674406282,79.5789297 0.000674406282,82.1932655 C0.000674406282,84.8076016 2.12808903,86.9353533 4.74242498,86.9353533 L6.32289609,86.9353533 L9.48417553,86.9353533 L14.2259261,86.9353533 C14.2259261,93.035021 19.1892192,98 25.2902356,98 C31.391252,98 36.3545449,93.0353581 36.3545449,86.9353533 L66.3865312,86.9353533 C66.3865312,93.035021 71.3498241,98 77.4508405,98 C83.5518569,98 88.51515,93.0353581 88.51515,86.9353533 L91.6764294,86.9353533 L93.2572377,86.9353533 C95.8715738,86.9353533 97.9989884,84.8079386 97.9989884,82.1932655 C97.9989884,79.5785924 95.8729226,77.451515 93.2585866,77.451515 Z M80.7635242,47.4191917 L82.028036,60.0643095 L69.5488222,60.0643095 L69.5488222,47.4191917 L80.7635242,47.4191917 Z M37.9360278,7.90336722 C49.2660533,7.90336722 58.4841755,17.1214895 58.4841755,28.4518523 C58.4841755,39.7822149 49.2660533,49 37.9360278,49 C26.6060022,49 17.38788,39.7815406 17.38788,28.451515 C17.38788,17.1214895 26.6060022,7.90336722 37.9360278,7.90336722 Z M6.32323329,83.7740739 L4.74276218,83.7740739 C3.87176647,83.7740739 3.16229105,83.0659473 3.16229105,82.1932655 C3.16229105,81.3205837 3.87210367,80.6124572 4.74276218,80.6124572 L6.32323329,80.6124572 L6.32323329,83.7740739 Z M25.29091,94.8383833 C20.9332337,94.8383833 17.38788,91.2930295 17.38788,86.9350162 C17.38788,82.5770027 20.9332337,79.0319861 25.29091,79.0319861 C29.6485862,79.0319861 33.19394,82.57734 33.19394,86.9353533 C33.19394,91.2933667 29.6489234,94.8383833 25.29091,94.8383833 Z M25.29091,75.8707067 C20.2898501,75.8707067 16.0569392,79.2090178 14.6926153,83.7740739 L9.48451273,83.7744111 L9.48451273,77.451515 L9.48451273,33.1936028 L14.7037429,33.1936028 C16.9070283,44.0019751 26.4859579,52.1612794 37.9360278,52.1612794 C49.3860976,52.1612794 58.96469,44.0019751 61.1683126,33.1936028 L66.3875428,33.1936028 L66.3875428,44.2582495 L66.3875428,60.0646467 L66.3875428,63.2259261 L66.3875428,83.7744111 L35.8892047,83.7744111 C34.5248807,79.2090178 30.2919698,75.8707067 25.29091,75.8707067 Z M77.4518523,94.8383833 C73.0941761,94.8383833 69.5488222,91.2930295 69.5488222,86.9350162 C69.5488222,82.5770027 73.0941761,79.0316489 77.4518523,79.0316489 C81.8095283,79.0316489 85.3548822,82.5770027 85.3548822,86.9350162 C85.3548822,91.2930295 81.8098656,94.8383833 77.4518523,94.8383833 Z M88.5168361,83.7740739 L88.0504842,83.7740739 C86.6861603,79.2090178 82.4532492,75.8707067 77.4518523,75.8707067 C74.3570018,75.8707067 71.5592273,77.1510669 69.5488222,79.2073318 L69.5488222,63.2255889 L85.5211233,63.2255889 L88.5164988,63.2255889 L88.5164988,77.451515 L88.5164988,83.7740739 L88.5168361,83.7740739 Z M93.2585866,83.7740739 L91.6777783,83.7740739 L91.6777783,80.6127944 L93.2585866,80.6127944 C94.1295823,80.6127944 94.8390579,81.320921 94.8390579,82.1936028 C94.8390579,83.0662845 94.1292452,83.7740739 93.2585866,83.7740739 Z" id="Shape" fill="#333333" fill-rule="nonzero"></path>
                <path d="M25.29091,82.1932655 C22.6765741,82.1932655 20.5491595,84.3206801 20.5491595,86.9353533 C20.5491595,89.5496893 22.6765741,91.6774412 25.29091,91.6774412 C27.905246,91.6774412 30.0326604,89.5500266 30.0326604,86.9353533 C30.0329977,84.3206801 27.905246,82.1932655 25.29091,82.1932655 Z M25.29091,88.5158245 C24.4199143,88.5158245 23.7104389,87.807698 23.7104389,86.9350162 C23.7104389,86.0623344 24.4202515,85.3542079 25.29091,85.3542079 C26.1615686,85.3542079 26.871381,86.0623344 26.871381,86.9350162 C26.871381,87.807698 26.1619056,88.5158245 25.29091,88.5158245 Z" id="Shape" fill="#333333" fill-rule="nonzero"></path>
                <path d="M77.4518523,82.1932655 C74.8375162,82.1932655 72.7101016,84.3206801 72.7101016,86.9353533 C72.7101016,89.5496893 74.8375162,91.6774412 77.4518523,91.6774412 C80.0661882,91.6774412 82.1936028,89.5500266 82.1936028,86.9353533 C82.19394,84.3206801 80.0661882,82.1932655 77.4518523,82.1932655 Z M77.4518523,88.5158245 C76.5808564,88.5158245 75.871044,87.807698 75.871044,86.9350162 C75.871044,86.0623344 76.5808564,85.3542079 77.4518523,85.3542079 C78.322848,85.3542079 79.0323234,86.0623344 79.0323234,86.9350162 C79.0323234,87.807698 78.322848,88.5158245 77.4518523,88.5158245 Z" id="Shape" fill="#333333" fill-rule="nonzero"></path>
                <path d="M33.1942771,28.451515 C33.1942771,31.0658509 35.3216917,33.1936028 37.9360278,33.1936028 C40.5503636,33.1936028 42.6777783,31.0661882 42.6777783,28.451515 C42.6777783,25.8368419 40.5503636,23.7094273 37.9360278,23.7094273 C37.6672769,23.7094273 37.4079676,23.7458452 37.1503444,23.7883328 L28.0711499,13.1967821 L25.6702636,15.2547329 L34.3512211,25.3819548 C33.6397225,26.2118117 33.1942771,27.2756877 33.1942771,28.451515 Z M39.5168361,28.451515 C39.5168361,29.3225107 38.8070234,30.0323234 37.936365,30.0323234 C37.0653692,30.0323234 36.3558938,29.3225107 36.3558938,28.451515 C36.3558938,27.5805194 37.0657064,26.8707067 37.936365,26.8707067 C38.8070234,26.871044 39.5168361,27.5805194 39.5168361,28.451515 Z" id="Shape" fill="#333333" fill-rule="nonzero"></path>
                <path d="M36.4944843,45.7675707 L36.7537935,42.6174189 C29.4401945,42.0134881 23.7104389,35.7920902 23.7104389,28.4518523 C23.7104389,24.9776482 24.9907991,21.6265234 27.3158149,19.0121875 L24.9543812,16.9114119 C22.1141192,20.1043884 20.5491595,24.2027555 20.5491595,28.451515 C20.5491595,37.4248278 27.5528686,45.0307818 36.4944843,45.7675707 Z" id="Path" fill="#333333"></path>
            </g>
        </g>
    </g>
</svg>