<?xml version="1.0" encoding="UTF-8"?>
<svg width="52px" height="68px" viewBox="0 0 52 68" version="1.1" xmlns="http://www.w3.org/2000/svg" xmlns:xlink="http://www.w3.org/1999/xlink">
    <!-- Generator: Sketch 52.6 (67491) - http://www.bohemiancoding.com/sketch -->
    <title>marker_delivery</title>
    <desc>Created with Sketch.</desc>
    <g id="Page-1" stroke="none" stroke-width="1" fill="none" fill-rule="evenodd">
        <g id="marker_delivery" transform="translate(-1.000000, -1.000000)">
            <g id="Group" transform="translate(0.383000, 0.674000)">
                <g transform="translate(0.617000, 0.326000)">
                    <g fill="#2568EF" fill-rule="nonzero" id="Shape">
                        <path d="M49,14.6 C44.6,5.9 35.7,0.4 26,0.4 C15.9,0.4 0.1,8.9 0.1,26.4 C0.1,30.5 1.1,34.5 2.9,38.2 C7.2,46.6 25.9,67.6 25.9,67.6 C25.9,67.6 51.8,40.7 51.8,26.4 C51.8,22.3 50.9,18.3 49,14.6 Z M26,42 C17.4,42 10.5,35 10.5,26.4 C10.5,17.8 17.5,10.9 26,10.9 C34.5,10.8 41.4,17.6 41.5,26.1 C41.5,26.1 41.5,26.2 41.5,26.2 C41.5,32.6 37.7,38.3 31.9,40.8 C30,41.6 28,42 26,42 Z"></path>
                    </g>
                    <path d="M26,6.1 C14.8,6.1 5.7,15.2 5.7,26.4 C5.7,37.6 14.8,46.7 26,46.7 C28.6,46.7 31.3,46.2 33.7,45.2 C41.3,42 46.3,34.5 46.3,26.2 C46.2,15 37.1,6.1 26,6.1 Z" id="Path" fill="#FFFFFF"></path>
                </g>
            </g>
            <g id="Group" transform="translate(13.000000, 10.415000)">
                <g id="iconfinder_free-17_463011">
                    <path d="M14.92,18 L13.96,18 C13.42,18 13,18.4307692 13,18.8884615 L13,19.4538462 C13,19.8038462 13.21,20.1 13.54,20.2346154 L13.12,25 L15.76,25 L15.4,20.2346154 C15.73,20.1 16,19.8038462 16,19.4538462 L16,18.8884615 C16,18.4307692 15.43,18 14.92,18 Z" id="Path" fill="#3B97D3"></path>
                    <path d="M26.8780488,19.9130435 C25.1490515,19.4599542 19.097561,18 19.097561,18 C19.097561,18 17.5257453,25.8535469 15.6657633,25.8535469 L13.3604336,25.8535469 C11.6838302,25.8535469 10.3477868,18.8306636 9.90243902,18.0503432 C9.90243902,18.0503432 3.85094851,19.4851259 2.12195122,19.9382151 C0.39295393,20.3913043 0,24.1670481 0,26.8604119 C0,26.8604119 3.77235772,29 14.5130985,29 C25.2276423,29 29,26.8604119 29,26.8604119 C29,24.1670481 28.633243,20.3661327 26.8780488,19.9130435 Z M1.07407407,26.2059497 C1.15266486,22.5812357 1.91237579,21.020595 2.41011743,20.8947368 C3.69376694,20.5675057 7.43992773,19.6613272 9.22131888,19.2334096 C9.27371274,19.4599542 9.35230352,19.6864989 9.40469738,19.9130435 C10.5311653,23.9656751 11.4480578,26.8352403 13.3604336,26.8352403 L15.6657633,26.8352403 C17.0280036,26.8352403 18.0496838,25.4508009 19.097561,22.2036613 C19.464318,21.0961098 19.7262873,19.9885584 19.9096658,19.208238 C21.7172538,19.6613272 25.3586269,20.5423341 26.6160795,20.8695652 C27.1138211,20.9954233 27.8735321,22.5560641 27.9521229,26.180778 C26.6160795,26.7093822 22.6079494,27.9427918 14.5392954,27.9427918 C6.44444444,27.9679634 2.41011743,26.7345538 1.07407407,26.2059497 Z" id="Shape" fill="#2C3E50" fill-rule="nonzero"></path>
                    <path d="M19.8369155,4.3828125 C19.0577013,0.584375 15.6140774,2.84217094e-14 13.9551053,2.84217094e-14 C11.9190942,2.84217094e-14 8.62628593,0.478125 8.07329524,4.99375 C7.64598424,8.4734375 9.17927662,12.9625 10.285258,14.4765625 C11.542055,16.15 12.6480364,17 14.2064648,17 C15.6392134,17 16.6195151,16.25625 17.9517199,14.2375 C19.1582451,12.378125 20.465314,7.596875 19.8369155,4.3828125 Z M17.1222339,13.6265625 C15.8654368,15.565625 15.1364946,15.9109375 14.2064648,15.9109375 C13.0753474,15.9109375 12.2207254,15.3265625 11.0644722,13.7859375 C10.1847143,12.590625 8.65142187,8.4203125 9.05359692,5.1 C9.40550009,2.284375 10.9136565,1.0359375 13.9299694,1.0359375 C17.7003605,1.0359375 18.6052544,3.5328125 18.8314778,4.5953125 C19.4347404,7.5171875 18.2030793,11.9796875 17.1222339,13.6265625 Z" id="Shape" fill="#2C3E50" fill-rule="nonzero"></path>
                </g>
            </g>
        </g>
    </g>
</svg>