<?xml version="1.0" encoding="UTF-8"?>
<svg width="110px" height="126px" viewBox="0 0 110 126" version="1.1" xmlns="http://www.w3.org/2000/svg" xmlns:xlink="http://www.w3.org/1999/xlink">
    <!-- Generator: Sketch 52.6 (67491) - http://www.bohemiancoding.com/sketch -->
    <title>success_logo</title>
    <desc>Created with Sketch.</desc>
    <defs>
        <linearGradient x1="50%" y1="0%" x2="50%" y2="100%" id="linearGradient-1">
            <stop stop-color="#F0B41D" offset="0%"></stop>
            <stop stop-color="#F19F22" offset="100%"></stop>
        </linearGradient>
        <linearGradient x1="50%" y1="0%" x2="50%" y2="98.52556%" id="linearGradient-2">
            <stop stop-color="#339266" offset="0%"></stop>
            <stop stop-color="#339266" offset="100%"></stop>
        </linearGradient>
    </defs>
    <g id="Page-1" stroke="none" stroke-width="1" fill="none" fill-rule="evenodd">
        <g id="success_logo">
            <g id="Group" transform="translate(31.369000, 77.899000)">
                <g stroke-linejoin="round" transform="translate(0.819000, 0.045000)" id="Oval">
                    <circle fill="url(#linearGradient-2)" cx="23.5" cy="23.5" r="21.5"></circle>
                    <circle stroke="#FFFFFF" stroke-width="3" cx="23.5" cy="23.5" r="23"></circle>
                </g>
                <g transform="translate(13.039000, 15.244000)" fill="#FFFFFF">
                    <path d="M6.03,15.452 L1.712,11.132 C1.05898502,10.526644 0.789365378,9.61260783 1.0092922,8.74975402 C1.22921903,7.88690022 1.90346478,7.2134394 2.76657417,6.99451779 C3.62968356,6.77559618 4.54340502,7.04628034 5.148,7.7 L7.748,10.3 L11.475,6.573 L17.336,0.712 C17.9497823,0.0983963278 18.8442942,-0.141147893 19.6825817,0.0836013284 C20.5208692,0.30835055 21.1755765,0.963248461 21.4000817,1.80160135 C21.6245869,2.63995424 21.3847823,3.53439635 20.771,4.148 L11.476,13.448 L9.468,15.452 C9.01209716,15.9079153 8.39375276,16.1640468 7.749,16.1640468 C7.10424724,16.1640468 6.48590284,15.9079153 6.03,15.452 Z" id="Path"></path>
                    <g opacity="0" transform="translate(3.780000, 1.801000)" font-family="Helvetica" font-size="8" font-weight="normal" id="120">
                        <text>
                            <tspan x="0.652" y="8">120</tspan>
                        </text>
                    </g>
                </g>
            </g>
            <g id="iconfinder_JD-15_2246818" transform="translate(0.369000, 0.899000)">
                <path d="M43.2988832,71.1929453 L43.3974234,71.3258896 L53.7441715,85.7836116 C54.081573,86.2312017 55.1987555,86.2021201 55.517927,85.717073 L65.9302701,71.3591257 L66.0616569,71.1929453 L104.820781,71.1929453 C106.922971,71.1929453 108.631,69.4646699 108.631,67.3375617 L108.631,3.95638367 C108.631,1.82927544 106.922971,0.101 104.820781,0.101 L4.44121898,0.101 C2.3390292,0.101 0.631,1.82927544 0.631,3.95638367 L0.631,67.3375617 C0.631,69.4646699 2.3390292,71.1929453 4.44121898,71.1929453 L43.2988832,71.1929453 Z" id="Path" fill="#F4F4F4"></path>
                <g id="Group" transform="translate(20.631000, 17.101000)" fill="#2568EF">
                    <circle id="Oval" cx="17.9803667" cy="11.2346333" r="10.3085333"></circle>
                    <path d="M35.6613333,35.3083 C35.6613333,29.788 31.1447333,25.2714 25.6244333,25.2714 L10.3363,25.2714 C4.816,25.2714 0.2994,29.788 0.2994,35.3083 L0.2994,36.4543667 L35.6613333,36.4543667 L35.6613333,35.3083 Z" id="Path"></path>
                </g>
                <g id="Group" transform="translate(20.631000, 18.101000)" stroke="#303030" stroke-linecap="round" stroke-linejoin="round" stroke-width="0.7">
                    <ellipse id="Oval" cx="17.9803667" cy="11.0121855" rx="10.3085333" ry="10.1211055"></ellipse>
                    <path d="M0.2994,34.6481491 C0.2994,29.2282182 4.816,24.7937382 10.3363,24.7937382 L25.6244333,24.7937382 C31.1447333,24.7937382 35.6613333,29.2282182 35.6613333,34.6481491" id="Path"></path>
                </g>
                <path d="M36.631,23.101 C36.4330377,23.101 33.3195616,24.1573087 32.631,27.101" id="Path" stroke="#303030" stroke-width="0.7" stroke-linecap="round" stroke-linejoin="round"></path>
                <polygon id="Path" fill="#303030" points="78.105302 27.3823248 78.0225483 27.3823248 73.335116 29.8217737 72.631 27.1413315 78.5190017 24.101 81.631 24.101 81.631 50.101 78.105302 50.101"></polygon>
                <path d="M43.2988832,71.1929453 L43.3974234,71.3258896 L53.7441715,85.7836116 C54.081573,86.2312017 55.1987555,86.2021201 55.517927,85.717073 L65.9302701,71.3591257 L66.0616569,71.1929453 L104.820781,71.1929453 C106.922971,71.1929453 108.631,69.4646699 108.631,67.3375617 L108.631,3.95638367 C108.631,1.82927544 106.922971,0.101 104.820781,0.101 L4.44121898,0.101 C2.3390292,0.101 0.631,1.82927544 0.631,3.95638367 L0.631,67.3375617 C0.631,69.4646699 2.3390292,71.1929453 4.44121898,71.1929453 L43.2988832,71.1929453 Z" id="Path" stroke="#303030" stroke-width="0.7" stroke-linecap="round" stroke-linejoin="round"></path>
            </g>
        </g>
    </g>
</svg>