<svg height="512" viewBox="0 0 64 64" width="512" xmlns="http://www.w3.org/2000/svg"><path d="m4 53a1 1 0 0 0 1 1h31v-23a3 3 0 0 1 3-3h13v-7h-18v7a1 1 0 0 1 -1.625.781l-4.375-3.501-4.375 3.5a1 1 0 0 1 -1.625-.78v-7h-18z"/><path d="m27.375 23.219a1 1 0 0 1 1.25 0l3.375 2.7v-12.919h-8v12.919z"/><path d="m34 13h18v6h-18z"/><path d="m4 13h18v6h-18z"/><path d="m55.707 32.293.293.293v-2.586h-2v2.586l.293-.293a1 1 0 0 1 1.414 0z"/><path d="m39 60h20a1 1 0 0 0 1-1v-28a1 1 0 0 0 -1-1h-1v5a1 1 0 0 1 -.617.924.987.987 0 0 1 -.383.076 1 1 0 0 1 -.707-.293l-1.293-1.293-1.293 1.293a1 1 0 0 1 -1.707-.707v-5h-13a1 1 0 0 0 -1 1v28a1 1 0 0 0 1 1zm15-22h4v2h-4zm-4 0h2v2h-2zm0 4h8v2h-8zm0 7h8v2h-8zm0 4h8v2h-8zm-8.293-12.707 1.293 1.293 3.293-3.293 1.414 1.414-4 4a1 1 0 0 1 -1.414 0l-2-2zm0 11 1.293 1.293 3.293-3.293 1.414 1.414-4 4a1 1 0 0 1 -1.414 0l-2-2z"/><path d="m45.93 4h-35.86a.985.985 0 0 0 -.825.44l-4.376 6.56h46.262l-4.373-6.556a.988.988 0 0 0 -.828-.444z"/></svg>