<svg id="Layer_1" enable-background="new 0 0 24 24" height="512" viewBox="0 0 24 24" width="512" xmlns="http://www.w3.org/2000/svg"><path d="m17 16c0 .5517578-.4487305 1-1 1h-8c-.5512695 0-1-.4482422-1-1 0-.5527344-.4477539-1-1-1s-1 .4472656-1 1c0 1.6542969 1.3457031 3 3 3h8c1.6542969 0 3-1.3457031 3-3 0-.5527344-.4477539-1-1-1s-1 .4472656-1 1z"/><path d="m16 5h-8c-1.6542969 0-3 1.3457031-3 3 0 .5527344.4477539 1 1 1s1-.4472656 1-1c0-.5517578.4487305-1 1-1h8c.5512695 0 1 .4482422 1 1 0 .5527344.4477539 1 1 1s1-.4472656 1-1c0-1.6542969-1.3457031-3-3-3z"/><path d="m2 6c.5522461 0 1-.4472656 1-1v-1c0-.5517578.4487305-1 1-1h1c.5522461 0 1-.4472656 1-1s-.4477539-1-1-1h-1c-1.6542969 0-3 1.3457031-3 3v1c0 .5527344.4477539 1 1 1z"/><path d="m20 1h-1c-.5522461 0-1 .4472656-1 1s.4477539 1 1 1h1c.5512695 0 1 .4482422 1 1v1c0 .5527344.4477539 1 1 1s1-.4472656 1-1v-1c0-1.6542969-1.3457031-3-3-3z"/><path d="m4 23h1c.5522461 0 1-.4472656 1-1s-.4477539-1-1-1h-1c-.5512695 0-1-.4482422-1-1v-1c0-.5527344-.4477539-1-1-1s-1 .4472656-1 1v1c0 1.6542969 1.3457031 3 3 3z"/><path d="m22 18c-.5522461 0-1 .4472656-1 1v1c0 .5517578-.4487305 1-1 1h-1c-.5522461 0-1 .4472656-1 1s.4477539 1 1 1h1c1.6542969 0 3-1.3457031 3-3v-1c0-.5527344-.4477539-1-1-1z"/><path d="m21 12c0-.5527344-.4477539-1-1-1h-16c-.5522461 0-1 .4472656-1 1s.4477539 1 1 1h16c.5522461 0 1-.4472656 1-1z"/></svg>