<svg id="Layer_1" enable-background="new 0 0 484.18 484.18" height="512" viewBox="0 0 484.18 484.18" width="512" xmlns="http://www.w3.org/2000/svg"><path d="m169.569 157.389 45.763-87.44c1.914-3.657 1.914-8.021 0-11.678-2.947-5.631-9.627-8.183-15.578-5.952l-135.707 50.889c-3.751 1.407-7.022 3.857-9.426 7.063l-53.807 71.738c-2.193 2.924.355 7.017 3.945 6.33 50.939-9.749 106.468-20.297 164.81-30.95z"/><path d="m213.546 163.937-11.52 22.011c-3.003 5.738-8.488 9.767-14.86 10.925-44.093 8.016-86.681 15.999-126.987 23.652-5.664 1.075-9.759 6.024-9.759 11.789v135.886c0 9.185 5.969 17.304 14.736 20.044l140.354 43.866c7.727 2.415 15.58-3.358 15.58-11.454v-254.864c0-4.181-5.605-5.559-7.544-1.855z"/><path d="m268.848 69.948 45.763 87.44c58.342 10.654 113.871 21.201 164.809 30.95 3.59.687 6.138-3.406 3.945-6.33l-53.806-71.738c-2.404-3.205-5.675-5.656-9.426-7.063l-135.707-50.888c-5.951-2.231-12.631.321-15.578 5.952-1.914 3.657-1.914 8.02 0 11.677z"/><path d="m297.014 196.874c-6.372-1.158-11.857-5.187-14.86-10.925l-11.52-22.011c-1.939-3.704-7.544-2.326-7.544 1.855v254.865c0 8.096 7.852 13.869 15.58 11.454l140.354-43.865c8.767-2.74 14.736-10.859 14.736-20.044v-135.888c0-5.765-4.096-10.714-9.759-11.789-40.306-7.653-82.894-15.636-126.987-23.652zm58.569 144.523-42.667 14.667c-2.261.777-4.564 1.146-6.828 1.146-8.719 0-16.865-5.472-19.858-14.179-3.771-10.968 2.064-22.916 13.033-26.686l42.667-14.667c10.969-3.772 22.916 2.064 26.686 13.033 3.77 10.968-2.064 22.916-13.033 26.686z"/></svg>