<?xml version="1.0" encoding="iso-8859-1"?>
<!-- Generator: Adobe Illustrator 19.0.0, SVG Export Plug-In . SVG Version: 6.00 Build 0)  -->
<svg version="1.1" id="Layer_1" xmlns="http://www.w3.org/2000/svg" xmlns:xlink="http://www.w3.org/1999/xlink" x="0px" y="0px"
	 viewBox="0 0 512 512" style="enable-background:new 0 0 512 512;" xml:space="preserve">
<g>
	<g>
		<path d="M451.568,362.581c-15.168-11.733-25.131-75.563-24.896-127.915v-64C426.672,76.544,350.107,0,256.006,0
			S85.339,76.544,85.339,170.667v64.085c0.235,52.245-9.685,116.075-24.875,127.829c-7.829,6.016-11.52,16.085-9.408,25.643
			c2.112,9.536,9.387,16.811,19.264,19.029c26.539,5.611,53.461,9.771,80.512,12.928C158.15,471.936,202.267,512,256.006,512
			c53.717,0,97.856-40.085,105.152-91.819c27.157-3.179,54.144-7.36,80.811-12.992c9.579-2.155,16.853-9.429,18.965-18.965
			C463.067,378.667,459.376,368.597,451.568,362.581z M170.672,192c-11.797,0-21.333-9.557-21.333-21.333
			C149.339,111.851,197.19,64,256.006,64c11.776,0,21.333,9.536,21.333,21.333c0,11.776-9.557,21.333-21.333,21.333
			c-35.307,0-64,28.693-64,64C192.006,182.443,182.448,192,170.672,192z M256.006,469.333c-28.757,0-53.141-19.072-61.184-44.907
			c1.728,0.128,3.456,0.064,5.184,0.171c18.624,1.152,37.248,1.92,55.915,1.92c18.517,0,36.992-0.747,55.467-1.877
			c1.899-0.107,3.797-0.064,5.696-0.192C308.934,450.432,284.635,469.333,256.006,469.333z"/>
	</g>
</g>
<g>
</g>
<g>
</g>
<g>
</g>
<g>
</g>
<g>
</g>
<g>
</g>
<g>
</g>
<g>
</g>
<g>
</g>
<g>
</g>
<g>
</g>
<g>
</g>
<g>
</g>
<g>
</g>
<g>
</g>
</svg>
