<?xml version="1.0" encoding="iso-8859-1"?>
<!-- Generator: Adobe Illustrator 19.0.0, SVG Export Plug-In . SVG Version: 6.00 Build 0)  -->
<svg version="1.1" id="Layer_1" xmlns="http://www.w3.org/2000/svg" xmlns:xlink="http://www.w3.org/1999/xlink" x="0px" y="0px"
	 viewBox="0 0 512 512" style="enable-background:new 0 0 512 512;" xml:space="preserve">
<g>
	<g>
		<g>
			<path d="M438.251,0H320H192H73.749C33.018,0,0,33.018,0,73.749v364.501C0,478.982,33.018,512,73.749,512H192
				c11.782,0,21.333-9.551,21.333-21.333s-9.551-21.333-21.333-21.333H73.749c-17.167,0-31.083-13.915-31.083-31.083V73.749
				c0-17.167,13.915-31.083,31.083-31.083h96.917v106.667c0,17.039,18.99,27.202,33.167,17.75L256,132.306l52.166,34.778
				c14.177,9.451,33.167-0.712,33.167-17.75V42.667h96.917c17.167,0,31.083,13.915,31.083,31.083v75.584
				c0,11.782,9.551,21.333,21.333,21.333S512,161.115,512,149.333V73.749C512,33.018,478.982,0,438.251,0z M298.667,109.472
				l-30.833-20.555c-7.166-4.777-16.501-4.777-23.667,0l-30.833,20.555V42.667h85.333V109.472z"/>
			<path d="M362.667,277.333c-11.782,0-21.333,9.551-21.333,21.333v64c0,11.782,9.551,21.333,21.333,21.333S384,374.449,384,362.667
				v-64C384,286.885,374.449,277.333,362.667,277.333z"/>
			<path d="M362.667,405.333c-11.776,0-21.333,9.557-21.333,21.333S350.891,448,362.667,448S384,438.443,384,426.667
				S374.443,405.333,362.667,405.333z"/>
			<path d="M362.667,213.333c-82.481,0-149.333,66.853-149.333,149.333S280.186,512,362.667,512S512,445.147,512,362.667
				S445.147,213.333,362.667,213.333z M362.667,469.333C303.75,469.333,256,421.583,256,362.667C256,303.75,303.75,256,362.667,256
				c58.917,0,106.667,47.75,106.667,106.667C469.333,421.583,421.583,469.333,362.667,469.333z"/>
		</g>
	</g>
</g>
<g>
</g>
<g>
</g>
<g>
</g>
<g>
</g>
<g>
</g>
<g>
</g>
<g>
</g>
<g>
</g>
<g>
</g>
<g>
</g>
<g>
</g>
<g>
</g>
<g>
</g>
<g>
</g>
<g>
</g>
</svg>
