<?xml version="1.0" encoding="iso-8859-1"?>
<!-- Generator: Adobe Illustrator 19.0.0, SVG Export Plug-In . SVG Version: 6.00 Build 0)  -->
<svg version="1.1" id="Layer_1" xmlns="http://www.w3.org/2000/svg" xmlns:xlink="http://www.w3.org/1999/xlink" x="0px" y="0px"
	 viewBox="0 0 512.006 512.006" style="enable-background:new 0 0 512.006 512.006;" xml:space="preserve">
<g>
	<g>
		<g>
			<path d="M438.254,0H320.003h-128H73.753C33.091,0,0.003,33.088,0.003,73.749v364.501C0.003,478.912,33.091,512,73.753,512
				h118.251c11.797,0,21.333-9.557,21.333-21.333s-9.536-21.333-21.333-21.333H73.753c-17.152,0-31.083-13.952-31.083-31.083V73.749
				c0-17.131,13.931-31.083,31.083-31.083h96.917v106.667c0,7.872,4.331,15.104,11.264,18.816c6.933,3.712,15.36,3.285,21.909-1.067
				l52.16-34.773l52.16,34.773c3.563,2.389,7.701,3.584,11.84,3.584c3.456,0,6.912-0.832,10.069-2.517
				c6.933-3.712,11.264-10.944,11.264-18.816V42.667h96.917c17.152,0,31.083,13.952,31.083,31.083v75.584
				c0,11.776,9.536,21.333,21.333,21.333s21.333-9.557,21.333-21.333V73.749C512.003,33.088,478.915,0,438.254,0z"/>
			<path d="M362.659,213.34c-82.325,0-149.333,66.987-149.333,149.333s67.008,149.333,149.333,149.333
				c82.347,0,149.333-66.987,149.333-149.333S445.006,213.34,362.659,213.34z M424.419,329.542l-42.667,85.333
				c-1.024,2.027-2.347,3.776-3.84,5.312c-0.064,0.064-0.085,0.149-0.171,0.235c-0.213,0.213-0.491,0.277-0.725,0.491
				c-1.621,1.472-3.435,2.667-5.397,3.584c-0.619,0.277-1.195,0.555-1.835,0.789c-2.261,0.811-4.629,1.365-7.061,1.365
				c0,0-0.043,0.021-0.064,0.021c-2.411,0-4.821-0.555-7.168-1.408c-0.448-0.149-0.875-0.277-1.301-0.469
				c-0.363-0.149-0.725-0.213-1.067-0.384c-1.088-0.533-1.792-1.451-2.731-2.133c-0.917-0.661-1.984-1.045-2.816-1.856
				l-42.667-42.667c-8.32-8.341-8.32-21.845,0-30.165c8.341-8.341,21.845-8.341,30.187,0l21.717,21.739l29.44-58.88
				c5.291-10.539,18.091-14.805,28.629-9.536C425.422,306.182,429.689,319.004,424.419,329.542z"/>
		</g>
	</g>
</g>
<g>
</g>
<g>
</g>
<g>
</g>
<g>
</g>
<g>
</g>
<g>
</g>
<g>
</g>
<g>
</g>
<g>
</g>
<g>
</g>
<g>
</g>
<g>
</g>
<g>
</g>
<g>
</g>
<g>
</g>
</svg>
