<?xml version="1.0" encoding="iso-8859-1"?>
<!-- Generator: Adobe Illustrator 19.0.0, SVG Export Plug-In . SVG Version: 6.00 Build 0)  -->
<svg version="1.1" id="Layer_1" xmlns="http://www.w3.org/2000/svg" xmlns:xlink="http://www.w3.org/1999/xlink" x="0px" y="0px"
	 viewBox="0 0 512.004 512.004" style="enable-background:new 0 0 512.004 512.004;" xml:space="preserve">
<g>
	<g>
		<g>
			<path d="M438.253,0H320.002h-128H73.751C33.09,0,0.002,33.088,0.002,73.749v364.501C0.002,478.912,33.09,512,73.751,512h118.251
				c11.797,0,21.333-9.557,21.333-21.333s-9.536-21.333-21.333-21.333H73.751c-17.152,0-31.083-13.952-31.083-31.083V73.749
				c0-17.131,13.931-31.083,31.083-31.083h96.917v106.667c0,7.872,4.331,15.104,11.264,18.816c6.933,3.712,15.36,3.285,21.909-1.067
				l52.16-34.773l52.16,34.773c3.563,2.389,7.701,3.584,11.84,3.584c3.456,0,6.912-0.832,10.069-2.517
				c6.933-3.712,11.264-10.944,11.264-18.816V42.667h96.917c17.152,0,31.083,13.952,31.083,31.083v75.584
				c0,11.776,9.536,21.333,21.333,21.333s21.333-9.557,21.333-21.333V73.749C512.002,33.088,478.914,0,438.253,0z"/>
			<path d="M501.043,311.343l-23.04-23.04c-14.123-14.144-38.805-14.144-52.907-0.021L302.089,411.311
				c-2.56,2.56-4.416,5.717-5.419,9.173l-18.496,64.277c-2.155,7.467-0.085,15.488,5.419,20.992
				c4.053,4.053,9.493,6.251,15.083,6.251c1.963,0,3.947-0.277,5.888-0.832l64.277-18.496c3.477-1.003,6.635-2.88,9.173-5.419
				l123.029-123.029c14.571-14.571,14.592-38.293,0.021-52.885H501.043z"/>
		</g>
	</g>
</g>
<g>
</g>
<g>
</g>
<g>
</g>
<g>
</g>
<g>
</g>
<g>
</g>
<g>
</g>
<g>
</g>
<g>
</g>
<g>
</g>
<g>
</g>
<g>
</g>
<g>
</g>
<g>
</g>
<g>
</g>
</svg>
