<?xml version="1.0" encoding="iso-8859-1"?>
<!-- Generator: Adobe Illustrator 19.0.0, SVG Export Plug-In . SVG Version: 6.00 Build 0)  -->
<svg version="1.1" id="Layer_1" xmlns="http://www.w3.org/2000/svg" xmlns:xlink="http://www.w3.org/1999/xlink" x="0px" y="0px"
	 viewBox="0 0 512 512" style="enable-background:new 0 0 512 512;" xml:space="preserve">
<g>
	<g>
		<g>
			<path d="M438.251,0H320H192H73.749C33.088,0,0,33.088,0,73.749v364.501C0,478.912,33.088,512,73.749,512H192
				c11.797,0,21.333-9.557,21.333-21.333s-9.536-21.333-21.333-21.333H73.749c-17.152,0-31.083-13.952-31.083-31.083V73.749
				c0-17.131,13.931-31.083,31.083-31.083h96.917v106.667c0,7.872,4.331,15.104,11.264,18.816c6.933,3.712,15.36,3.285,21.909-1.067
				L256,132.309l52.16,34.773c3.563,2.389,7.701,3.584,11.84,3.584c3.456,0,6.912-0.832,10.069-2.517
				c6.933-3.712,11.264-10.944,11.264-18.816V42.667h96.917c17.152,0,31.083,13.952,31.083,31.083v75.584
				c0,11.776,9.536,21.333,21.333,21.333S512,161.109,512,149.333V73.749C512,33.088,478.912,0,438.251,0z"/>
			<path d="M277.342,341.34c0,11.776,9.536,21.333,21.333,21.333c11.776,0,21.333-9.557,21.333-21.333
				c0-23.531,19.136-42.667,42.667-42.667h76.501l-6.251,6.251c-8.341,8.32-8.341,21.824,0,30.165
				c4.16,4.16,9.621,6.251,15.083,6.251c5.44,0,10.901-2.091,15.083-6.251l42.645-42.667c1.984-1.963,3.541-4.331,4.629-6.933
				c2.155-5.227,2.155-11.093,0-16.299c-1.088-2.624-2.645-4.992-4.629-6.955l-42.645-42.645c-8.341-8.341-21.845-8.341-30.165,0
				c-8.341,8.32-8.341,21.824,0,30.165l6.251,6.251h-76.501C315.614,256.006,277.342,294.278,277.342,341.34z"/>
			<path d="M490.667,362.667c-11.797,0-21.333,9.557-21.333,21.333c0,23.531-19.136,42.667-42.667,42.667h-76.501l6.251-6.251
				c8.341-8.341,8.341-21.824,0-30.165c-8.341-8.341-21.824-8.341-30.165,0l-42.645,42.645c-1.984,1.984-3.541,4.331-4.629,6.955
				c-2.155,5.205-2.155,11.093,0,16.299c1.088,2.624,2.645,4.971,4.629,6.955l42.645,42.645c4.16,4.16,9.621,6.251,15.083,6.251
				c5.461,0,10.923-2.091,15.083-6.251c8.341-8.341,8.341-21.824,0-30.165l-6.251-6.251h76.501C473.728,469.333,512,431.061,512,384
				C512,372.224,502.464,362.667,490.667,362.667z"/>
		</g>
	</g>
</g>
<g>
</g>
<g>
</g>
<g>
</g>
<g>
</g>
<g>
</g>
<g>
</g>
<g>
</g>
<g>
</g>
<g>
</g>
<g>
</g>
<g>
</g>
<g>
</g>
<g>
</g>
<g>
</g>
<g>
</g>
</svg>
