<?xml version="1.0" encoding="utf-8"?>
<!-- Generator: Adobe Illustrator 24.0.1, SVG Export Plug-In . SVG Version: 6.00 Build 0)  -->
<svg version="1.1" id="Capa_1" xmlns="http://www.w3.org/2000/svg" xmlns:xlink="http://www.w3.org/1999/xlink" x="0px" y="0px"
	 viewBox="0 0 512 512" style="enable-background:new 0 0 512 512;" xml:space="preserve">
<style type="text/css">
	.st0{fill:#EFA81F;}
</style>
<g transform="matrix(-1 0 0 1 493.349 0)">
	<g>
		<path class="st0" d="M487.7,53c-3.7-3.7-8.2-5.6-13.3-5.6H171c-5.1,0-9.6,1.9-13.3,5.6c-3.8,3.8-5.6,8.2-5.6,13.3v56.9h-47.4
			c-5.3,0-11.1,1.3-17.3,3.9c-6.2,2.6-11.2,5.7-15,9.5l-58.7,58.7c-2.6,2.6-4.8,5.5-6.7,8.9c-1.9,3.4-3.3,6.4-4.1,9
			c-0.9,2.7-1.5,6.3-1.9,11c-0.4,4.6-0.6,8.1-0.7,10.2c-0.1,2.2-0.1,5.9,0,11.3c0.1,5.3,0.1,8.8,0.1,10.4v94.8
			c-5.1,0-9.6,1.9-13.3,5.6c-3.8,3.7-5.6,8.2-5.6,13.3c0,3,0.4,5.6,1.2,7.8c0.8,2.3,2.1,4.1,4,5.5c1.9,1.4,3.5,2.5,4.9,3.4
			c1.4,0.9,3.7,1.5,7,1.8c3.3,0.3,5.5,0.5,6.7,0.6c1.2,0.1,3.7,0.1,7.6,0c3.9-0.1,6.1-0.1,6.7-0.1h19c0,20.9,7.4,38.8,22.2,53.6
			c14.8,14.8,32.7,22.2,53.6,22.2c20.9,0,38.8-7.4,53.6-22.2c14.8-14.8,22.2-32.7,22.2-53.6h113.8c0,20.9,7.4,38.8,22.2,53.6
			c14.8,14.8,32.7,22.2,53.6,22.2c20.9,0,38.8-7.4,53.6-22.2c14.8-14.8,22.2-32.7,22.2-53.6c0.6,0,2.8,0,6.7,0.1
			c3.9,0.1,6.4,0.1,7.6,0c1.2-0.1,3.4-0.3,6.7-0.6c3.3-0.3,5.6-0.9,7-1.8c1.4-0.9,3-2,4.9-3.4c1.9-1.4,3.2-3.2,4-5.5
			c0.8-2.3,1.2-4.9,1.2-7.8V66.4C493.4,61.2,491.5,56.8,487.7,53z M140.8,415.4c-7.5,7.5-16.4,11.3-26.7,11.3
			c-10.3,0-19.2-3.8-26.7-11.3c-7.5-7.5-11.3-16.4-11.3-26.7c0-10.3,3.8-19.2,11.3-26.7c7.5-7.5,16.4-11.3,26.7-11.3
			c10.3,0,19.2,3.8,26.7,11.3c7.5,7.5,11.3,16.4,11.3,26.7C152,399,148.3,407.9,140.8,415.4z M152,237H38.2v-8.9
			c0-2.6,0.9-4.7,2.7-6.5l57.8-57.8c1.8-1.8,4-2.7,6.5-2.7H152V237z M406.2,415.4c-7.5,7.5-16.4,11.3-26.7,11.3
			c-10.3,0-19.2-3.8-26.7-11.3c-7.5-7.5-11.3-16.4-11.3-26.7c0-10.3,3.8-19.2,11.3-26.7c7.5-7.5,16.4-11.3,26.7-11.3
			c10.3,0,19.2,3.8,26.7,11.3c7.5,7.5,11.3,16.4,11.3,26.7C417.5,399,413.7,407.9,406.2,415.4z"/>
	</g>
</g>
</svg>
