<?xml version="1.0" encoding="UTF-8"?>
<svg width="162px" height="326px" viewBox="0 0 162 326" version="1.1" xmlns="http://www.w3.org/2000/svg" xmlns:xlink="http://www.w3.org/1999/xlink">
    <!-- Generator: Sketch 52.6 (67491) - http://www.bohemiancoding.com/sketch -->
    <title>home_logo</title>
    <desc>Created with Sketch.</desc>
    <g id="Page-1" stroke="none" stroke-width="1" fill="none" fill-rule="evenodd">
        <g id="home_logo" transform="translate(-1.000000, 0.000000)">
            <g id="Group" transform="translate(0.000000, 307.000000)" fill="#281B13">
                <path d="M11.977,2.808 L7.85,2.808 C5.021,2.68 3.638,4.063 3.51,7.148 L11.977,7.148 L11.977,8.956 L3.489,8.956 C3.553,11.956 5.063,13.53 7.722,13.381 L11.977,13.381 L11.977,15.19 L7.318,15.19 C4.871,15.19 3.531,14.68 2.467,13.361 C1.40147905,11.9289274 0.881030181,10.1640811 0.999,8.383 C0.999,5.554 1.765,3.554 3.36,2.213 C4.381,1.362 5.76,1 7.977,1 L11.977,1 L11.977,2.808 Z" id="Path"></path>
                <polygon id="Path" points="13.126 4.829 15.615 4.829 18.444 8.637 21.295 4.829 23.72 4.829 19.699 9.956 23.826 15.189 21.336 15.189 18.443 11.317 15.443 15.189 13.017 15.189 17.144 9.956"></polygon>
                <path d="M29.637,4.829 C31.807,4.829 32.594,5.084 33.509,6.084 C34.3939935,7.18954064 34.8340914,8.58579941 34.743,9.999 C34.8081191,11.5731509 34.2501233,13.1095258 33.19,14.275 C32.36,15.019 31.637,15.19 29.403,15.19 L27.425,15.19 L27.425,18.49 L25.362,18.49 L25.362,4.829 L29.637,4.829 Z M27.425,13.551 L29.403,13.551 C30.2689699,13.64597 31.1380721,13.4019046 31.828,12.87 C32.4350764,11.9937169 32.713746,10.9314438 32.615,9.87 C32.615,7.444 31.7,6.47 29.403,6.47 L27.425,6.47 L27.425,13.551 Z" id="Shape" fill-rule="nonzero"></path>
                <path d="M39.615,4.829 C42.678,4.787 43.699,5.723 43.636,8.488 L43.636,9.509 L41.7,9.509 L41.7,8.488 C41.679,6.978 41.275,6.552 39.828,6.552 L39.02,6.552 L39.02,15.189 L36.956,15.189 L36.956,4.829 L39.615,4.829 Z" id="Path"></path>
                <path d="M53.336,10.68 L47.124,10.68 C47.0498881,11.4790909 47.3118528,12.2729563 47.847,12.871 C48.336,13.381 48.826,13.509 50.357,13.552 L53.335,13.552 L53.335,15.19 L49.804,15.19 C48.017,15.19 47.187,14.956 46.404,14.254 C45.3694888,13.1721487 44.8368513,11.7055813 44.936,10.212 C44.7725723,8.36227505 45.6388935,6.57239016 47.191,5.553 C48.1539342,5.00643185 49.2563031,4.75500826 50.361,4.83 L53.339,4.83 L53.339,6.468 L50.658,6.468 C48.446,6.425 47.489,7.127 47.127,9.042 L53.339,9.042 L53.336,10.68 Z" id="Path"></path>
                <path d="M63.973,6.467 L59.314,6.467 C57.889,6.467 57.676,6.51 57.421,6.743 C57.1601058,7.07497552 57.0311726,7.49169352 57.059,7.913 C57.059,8.955 57.399,9.168 59.102,9.168 L60.502,9.168 C62.802,9.189 62.902,9.211 63.374,9.487 C64.1364181,10.1233256 64.5279424,11.1002576 64.416,12.087 C64.5408148,13.2018572 64.0211842,14.2907549 63.076,14.895 C62.587,15.15 62.14,15.195 60.502,15.195 L55.034,15.195 L55.034,13.557 L60.012,13.557 C60.604856,13.6053561 61.201627,13.5550057 61.778,13.408 C62.1186667,13.2806667 62.289,12.8976667 62.289,12.259 C62.289,11.578 62.097,11.217 61.651,11.089 C61.1504761,11.023905 60.6452369,11.0024909 60.141,11.025 L59.311,11.025 C57.099,11.025 56.611,10.94 56.011,10.472 C55.2894457,9.81457026 54.8927958,8.87357777 54.926,7.898 C54.8546001,6.83390904 55.3791267,5.81797569 56.288,5.26 C57.0628393,4.91634242 57.910842,4.77031276 58.756,4.835 L63.968,4.835 L63.973,6.467 Z" id="Path"></path>
                <path d="M74.911,6.467 L70.252,6.467 C68.827,6.467 68.614,6.51 68.359,6.743 C68.0983777,7.07507268 67.9697945,7.49181035 67.998,7.913 C67.998,8.955 68.338,9.168 70.04,9.168 L71.44,9.168 C73.74,9.189 73.84,9.211 74.312,9.487 C75.074267,10.1234353 75.4657574,11.1002826 75.354,12.087 C75.4785717,13.2018162 74.9589994,14.2905916 74.014,14.895 C73.524,15.15 73.078,15.195 71.44,15.195 L65.972,15.195 L65.972,13.557 L70.95,13.557 C71.5428559,13.6053005 72.1396178,13.5549509 72.716,13.408 C73.0566667,13.2806667 73.2266667,12.8976667 73.226,12.259 C73.226,11.578 73.035,11.217 72.588,11.089 C72.0874761,11.023905 71.5822369,11.0024909 71.078,11.025 L70.248,11.025 C68.036,11.025 67.548,10.94 66.948,10.472 C66.2264457,9.81457026 65.8297958,8.87357777 65.863,7.898 C65.7916219,6.83416315 66.3156806,5.81839022 67.224,5.26 C67.9988514,4.91638263 68.846844,4.77035473 69.692,4.835 L74.904,4.835 L74.911,6.467 Z" id="Path"></path>
                <path d="M82.825,13.381 L88.952,13.381 C91.1,13.381 91.93,12.764 91.93,11.19 C92.0320162,10.3076683 91.5245761,9.46796598 90.696,9.148 C89.9847602,8.98625473 89.2537508,8.92898671 88.526,8.978 L87.356,8.978 C86.1384372,9.08024076 84.9162686,8.84459614 83.824,8.297 C82.8191663,7.63025353 82.2441781,6.47989643 82.314,5.276 C82.2739741,3.81272928 83.0102024,2.43724492 84.25,1.659 C85.3603463,1.1217838 86.5950741,0.894115743 87.824,1 L93.653,1 L93.653,2.808 L87.824,2.808 C87.0348242,2.71753819 86.2362976,2.85641239 85.524,3.208 C84.9869304,3.62322408 84.6855064,4.27382232 84.716,4.952 C84.716,6.377 85.588,6.93 87.822,6.93 L88.673,6.93 C91.073,6.93 92.073,7.122 92.864,7.696 C93.8546767,8.55067076 94.3962337,9.81418078 94.332,11.121 C94.424175,12.5734788 93.6590255,13.9458215 92.375,14.631 C91.545,15.057 90.716,15.184 88.675,15.184 L82.825,15.184 L82.825,13.381 Z" id="Path"></path>
                <path d="M98.484,4.829 L100.884,4.829 C104.484,4.808 105.628,5.935 105.584,9.339 L105.584,15.189 L103.52,15.189 L103.52,9.168 C103.541,7.062 102.92,6.445 100.882,6.468 L98.482,6.468 L98.482,15.19 L96.418,15.19 L96.418,1 L98.482,1 L98.484,4.829 Z" id="Path"></path>
                <path d="M108.398,1 L110.462,1 L110.462,3.149 L108.398,3.149 L108.398,1 Z M110.462,4.829 L110.462,15.19 L108.398,15.19 L108.398,4.83 L110.462,4.829 Z" id="Shape" fill-rule="nonzero"></path>
                <path d="M117.673,4.829 C119.843,4.829 120.63,5.084 121.545,6.084 C122.429993,7.18954064 122.870091,8.58579941 122.779,9.999 C122.844119,11.5731509 122.286123,13.1095258 121.226,14.275 C120.396,15.019 119.673,15.19 117.44,15.19 L115.462,15.19 L115.462,18.49 L113.398,18.49 L113.398,4.829 L117.673,4.829 Z M115.461,13.551 L117.439,13.551 C118.30497,13.64597 119.174072,13.4019046 119.864,12.87 C120.471076,11.9937169 120.749746,10.9314438 120.651,9.87 C120.651,7.444 119.736,6.47 117.439,6.47 L115.461,6.47 L115.461,13.551 Z" id="Shape" fill-rule="nonzero"></path>
                <path d="M129.268,4.829 C131.438,4.829 132.225,5.084 133.14,6.084 C134.02508,7.18949435 134.465189,8.5857876 134.374,9.999 C134.43901,11.573134 133.881029,13.1094689 132.821,14.275 C131.991,15.019 131.268,15.19 129.034,15.19 L127.056,15.19 L127.056,18.49 L124.992,18.49 L124.992,4.829 L129.268,4.829 Z M127.055,13.551 L129.033,13.551 C129.898961,13.6458643 130.768024,13.4018099 131.458,12.87 C132.065076,11.9937169 132.343746,10.9314438 132.245,9.87 C132.245,7.444 131.33,6.47 129.033,6.47 L127.055,6.47 L127.055,13.551 Z" id="Shape" fill-rule="nonzero"></path>
                <path d="M136.588,1 L138.652,1 L138.652,3.149 L136.588,3.149 L136.588,1 Z M138.652,4.829 L138.652,15.19 L136.588,15.19 L136.588,4.83 L138.652,4.829 Z" id="Shape" fill-rule="nonzero"></path>
                <path d="M146.374,4.83 C149.352,4.787 150.565,6 150.565,9.021 L150.565,15.191 L148.502,15.191 L148.502,9.233 C148.502,7.148 147.885,6.468 146.055,6.468 L143.655,6.468 L143.655,15.19 L141.591,15.19 L141.591,4.83 L146.374,4.83 Z" id="Path"></path>
                <path d="M162.308,14.019 C162.308,16.678 162.265,16.912 161.776,17.55 C161.095,18.273 160.176,18.507 158.138,18.486 L153.713,18.486 L153.713,16.848 L158.457,16.848 C160.116,16.848 160.265,16.72 160.244,15.189 L158.032,15.189 C155.947,15.189 155.479,15.104 154.607,14.589 C153.288,13.781 152.586,12.289 152.586,10.228 C152.521023,8.75214453 152.989202,7.30217432 153.905,6.143 C154.777,5.143 155.798,4.824 158.032,4.824 L162.308,4.824 L162.308,14.019 Z M158.18,6.467 C156.5,6.467 155.88,6.68 155.372,7.445 C154.919669,8.30316876 154.692578,9.26211368 154.712,10.232 C154.685837,11.1235301 154.938589,12.000996 155.435,12.742 C155.924,13.359 156.499,13.55 157.818,13.55 L160.243,13.55 L160.243,6.466 L158.18,6.467 Z" id="Shape" fill-rule="nonzero"></path>
            </g>
            <g id="logo" transform="translate(5.000000, 0.000000)">
                <rect id="Rectangle" fill="#FFDD7B" x="13" y="49" width="94" height="85"></rect>
                <g id="delivery">
                    <path d="M107.980469,97.1523438 L140.464844,97.1523438 L140.464844,134.148438 L136.48052,134.148438 C131.59821,125.559919 126.476068,121.377473 121.114094,121.601101 C115.75212,121.824729 111.688244,126.007174 108.922466,134.148438 L107.980469,134.148438 L107.980469,97.1523438 Z" id="Rectangle" fill="#FFDD7B"></path>
                    <circle id="Oval" fill="#FFFFFF" cx="59.5546875" cy="45.4179688" r="33.9882812"></circle>
                    <ellipse id="Oval" fill="#ED4F43" cx="7.51953125" cy="129.636719" rx="3.91015625" ry="4.51171875"></ellipse>
                    <ellipse id="Oval" fill="#ED4F43" cx="146.179688" cy="129.636719" rx="3.91015625" ry="4.51171875"></ellipse>
                    <rect id="Rectangle" stroke="#979797" fill="#B9EAF9" x="108.130859" y="72.6386719" width="21.65625" height="22.859375"></rect>
                    <circle id="Oval" fill="#FFFFFF" cx="39.703125" cy="136.554688" r="14.1367187"></circle>
                    <circle id="Oval" fill="#FFFFFF" cx="121.816406" cy="136.554688" r="14.1367188"></circle>
                    <path d="M81.9682548,72.0322752 L81.0790982,72.0322752 C75.1649886,76.6841851 67.7237342,79.4835974 59.6137579,79.4835974 C51.5037814,79.4835974 44.0625272,76.6841851 38.1484177,72.0317452 L37.2592611,72.0317452 L12.4206368,72.0317452 L12.4206368,111.773544 L106.807409,111.773544 L106.807409,72.0317452 L81.9682548,72.0317452 L81.9682548,72.0322752 Z" id="Path" fill="#007CAD"></path>
                    <path d="M146.549207,121.709524 L144.06508,121.709524 L144.06508,94.386772 L133.894359,94.386772 L131.410232,69.5481478 L109.291536,69.5481478 L109.291536,47.193651 L96.7453154,47.193651 C96.799894,46.369141 96.8719591,45.5494002 96.8719591,44.7095236 C96.8719591,34.6993594 92.8829422,25.6159738 86.4373525,18.9144468 L88.1785731,17.1732261 L92.6323042,21.626957 L96.1444192,18.1148418 L83.7253722,5.6952647 L80.2132569,9.20737994 L84.6669878,13.6611108 L82.7620309,15.5660677 C77.0068885,10.985693 69.8782697,8.09460957 62.098945,7.57796619 L62.098945,4.96772484 L69.5502674,4.96772484 L69.5502674,0 L49.679368,0 L49.679368,4.96772484 L57.1306902,4.96772484 L57.1306902,7.57849608 C49.3513658,8.09513946 42.2227467,10.9888723 36.4676046,15.5665976 L34.5626474,13.6616407 L39.0163785,9.20790983 L35.5042633,5.69579458 L23.0836264,18.1148418 L26.5957416,21.626957 L31.0494725,17.1732261 L32.7906933,18.9144468 C26.3451033,25.6159738 22.3560865,34.6993594 22.3560865,44.7095236 C22.3560865,45.5488703 22.4281517,46.3686114 22.4827304,47.193651 L9.93650946,47.193651 L9.93650946,121.709524 L7.45291199,121.709524 C3.34466978,121.709524 0.0010597813,125.052604 0.0010597813,129.160846 C0.0010597813,133.269088 3.3441399,136.612698 7.45238211,136.612698 L9.93597957,136.612698 L14.9037044,136.612698 L22.3550267,136.612698 C22.3550267,146.19789 30.1544873,154 39.7417989,154 C49.3291104,154 57.1285706,146.19842 57.1285706,136.612698 L104.321692,136.612698 C104.321692,146.19789 112.121152,154 121.708464,154 C131.295775,154 139.095236,146.19842 139.095236,136.612698 L144.062961,136.612698 L146.547088,136.612698 C150.65533,136.612698 153.99841,133.269618 153.99841,129.160846 C153.99841,125.052074 150.65745,121.709524 146.549207,121.709524 Z M126.914109,74.5158726 L128.901199,94.386772 L109.291006,94.386772 L109.291006,74.5158726 L126.914109,74.5158726 Z M59.6137579,12.4195771 C77.4180838,12.4195771 91.9037043,26.9051978 91.9037043,44.7100536 C91.9037043,62.5149092 77.4180838,77 59.6137579,77 C41.809432,77 27.3238114,62.5138495 27.3238114,44.7095236 C27.3238114,26.9051978 41.809432,12.4195771 59.6137579,12.4195771 Z M9.93650946,131.644973 L7.45291199,131.644973 C6.08420445,131.644973 4.9693145,130.532203 4.9693145,129.160846 C4.9693145,127.789489 6.08473433,126.676718 7.45291199,126.676718 L9.93650946,126.676718 L9.93650946,131.644973 Z M39.7428585,149.031745 C32.8950816,149.031745 27.3238114,143.460475 27.3238114,136.612168 C27.3238114,129.763861 32.8950816,124.193121 39.7428585,124.193121 C46.5906354,124.193121 52.1619058,129.764391 52.1619058,136.612698 C52.1619058,143.461005 46.5911654,149.031745 39.7428585,149.031745 Z M39.7428585,119.225396 C31.8840502,119.225396 25.232333,124.471314 23.0883954,131.644973 L14.9042343,131.645503 L14.9042343,121.709524 L14.9042343,52.1613758 L23.1058818,52.1613758 C26.5681873,69.1459609 41.6207911,81.9677248 59.6137579,81.9677248 C77.6067248,81.9677248 92.6587985,69.1459609 96.1216341,52.1613758 L104.323282,52.1613758 L104.323282,69.5486778 L104.323282,94.387302 L104.323282,99.3550268 L104.323282,131.645503 L56.3973217,131.645503 C54.253384,124.471314 47.6016668,119.225396 39.7428585,119.225396 Z M121.710054,149.031745 C114.862277,149.031745 109.291006,143.460475 109.291006,136.612168 C109.291006,129.763861 114.862277,124.192591 121.710054,124.192591 C128.55783,124.192591 134.129101,129.763861 134.129101,136.612168 C134.129101,143.460475 128.55836,149.031745 121.710054,149.031745 Z M139.097885,131.644973 L138.365047,131.644973 C136.221109,124.471314 129.569392,119.225396 121.710054,119.225396 C116.846717,119.225396 112.450214,121.237391 109.291006,124.468664 L109.291006,99.3544968 L134.390337,99.3544968 L139.097355,99.3544968 L139.097355,121.709524 L139.097355,131.644973 L139.097885,131.644973 Z M146.549207,131.644973 L144.06508,131.644973 L144.06508,126.677248 L146.549207,126.677248 C147.917915,126.677248 149.032805,127.790019 149.032805,129.161376 C149.032805,130.532733 147.917385,131.644973 146.549207,131.644973 Z" id="Shape" fill="#333333" fill-rule="nonzero"></path>
                    <path d="M39.7428585,129.160846 C35.6346164,129.160846 32.2915363,132.503926 32.2915363,136.612698 C32.2915363,140.72094 35.6346164,144.06455 39.7428585,144.06455 C43.8511009,144.06455 47.1941807,140.72147 47.1941807,136.612698 C47.1947107,132.503926 43.8511009,129.160846 39.7428585,129.160846 Z M39.7428585,139.096296 C38.374151,139.096296 37.2592611,137.983525 37.2592611,136.612168 C37.2592611,135.240811 38.374681,134.128041 39.7428585,134.128041 C41.1110363,134.128041 42.2264559,135.240811 42.2264559,136.612168 C42.2264559,137.983525 41.111566,139.096296 39.7428585,139.096296 Z" id="Shape" fill="#333333" fill-rule="nonzero"></path>
                    <path d="M121.710054,129.160846 C117.601811,129.160846 114.258731,132.503926 114.258731,136.612698 C114.258731,140.72094 117.601811,144.06455 121.710054,144.06455 C125.818296,144.06455 129.161376,140.72147 129.161376,136.612698 C129.161906,132.503926 125.818296,129.160846 121.710054,129.160846 Z M121.710054,139.096296 C120.341346,139.096296 119.225926,137.983525 119.225926,136.612168 C119.225926,135.240811 120.341346,134.128041 121.710054,134.128041 C123.078761,134.128041 124.193651,135.240811 124.193651,136.612168 C124.193651,137.983525 123.078761,139.096296 121.710054,139.096296 Z" id="Shape" fill="#333333" fill-rule="nonzero"></path>
                    <path d="M52.1624354,44.7095236 C52.1624354,48.8177657 55.5055156,52.1613758 59.6137579,52.1613758 C63.722,52.1613758 67.0650801,48.8182957 67.0650801,44.7095236 C67.0650801,40.6007516 63.722,37.2576715 59.6137579,37.2576715 C59.1914352,37.2576715 58.7839491,37.3148996 58.3791126,37.3816658 L44.1118069,20.7378005 L40.3389856,23.9717231 L53.9804903,39.885929 C52.8624211,41.1899899 52.1624354,42.8617949 52.1624354,44.7095236 Z M62.0978853,44.7095236 C62.0978853,46.0782311 60.9824654,47.193651 59.6142879,47.193651 C58.2455801,47.193651 57.1306902,46.0782311 57.1306902,44.7095236 C57.1306902,43.3408161 58.2461101,42.2253963 59.6142879,42.2253963 C60.9824654,42.2259262 62.0978853,43.3408161 62.0978853,44.7095236 Z" id="Shape" fill="#333333" fill-rule="nonzero"></path>
                    <path d="M57.3484754,71.9204682 L57.7559612,66.9702296 C46.2631629,66.0211956 37.2592611,56.2447132 37.2592611,44.7100536 C37.2592611,39.25059 39.2712558,33.9845368 42.9248519,29.8762946 L39.2140276,26.5750759 C34.7507587,31.5926103 32.2915363,38.0329015 32.2915363,44.7095236 C32.2915363,58.8104437 43.297365,70.7626571 57.3484754,71.9204682 Z" id="Path" fill="#333333"></path>
                </g>
            </g>
        </g>
    </g>
</svg>