<?xml version="1.0" encoding="UTF-8"?>
<svg width="52px" height="68px" viewBox="0 0 52 68" version="1.1" xmlns="http://www.w3.org/2000/svg" xmlns:xlink="http://www.w3.org/1999/xlink">
    <!-- Generator: Sketch 52.6 (67491) - http://www.bohemiancoding.com/sketch -->
    <title>marker</title>
    <desc>Created with Sketch.</desc>
    <g id="Page-1" stroke="none" stroke-width="1" fill="none" fill-rule="evenodd">
        <g id="marker" transform="translate(-1.000000, -1.000000)">
            <g id="Group" transform="translate(0.383000, 0.674000)">
                <g transform="translate(0.617000, 0.326000)">
                    <g fill="#2568EF" fill-rule="nonzero" id="Shape">
                        <path d="M49,14.6 C44.6,5.9 35.7,0.4 26,0.4 C15.9,0.4 0.1,8.9 0.1,26.4 C0.1,30.5 1.1,34.5 2.9,38.2 C7.2,46.6 25.9,67.6 25.9,67.6 C25.9,67.6 51.8,40.7 51.8,26.4 C51.8,22.3 50.9,18.3 49,14.6 Z M26,42 C17.4,42 10.5,35 10.5,26.4 C10.5,17.8 17.5,10.9 26,10.9 C34.5,10.8 41.4,17.6 41.5,26.1 C41.5,26.1 41.5,26.2 41.5,26.2 C41.5,32.6 37.7,38.3 31.9,40.8 C30,41.6 28,42 26,42 Z"></path>
                    </g>
                    <path d="M26,6.1 C14.8,6.1 5.7,15.2 5.7,26.4 C5.7,37.6 14.8,46.7 26,46.7 C28.6,46.7 31.3,46.2 33.7,45.2 C41.3,42 46.3,34.5 46.3,26.2 C46.2,15 37.1,6.1 26,6.1 Z M31.9,40.8 C24,44.1 14.9,40.3 11.6,32.3 C8.3,24.4 12.1,15.3 20.1,12 C28,8.7 37.1,12.5 40.4,20.5 C41.1,22.3 41.5,24.2 41.6,26.2 C41.5,32.5 37.7,38.3 31.9,40.8 Z" id="Shape" fill="#1054DD" fill-rule="nonzero"></path>
                    <path d="M41.5,26.2 C41.5,32.6 37.7,38.3 31.9,40.8 C24,44.1 14.9,40.3 11.6,32.3 C8.3,24.4 12.1,15.3 20.1,12 C28,8.7 37.1,12.5 40.4,20.5 C41.1,22.3 41.5,24.2 41.5,26.2 Z" id="Path" fill="#FFFFFF"></path>
                </g>
            </g>
        </g>
    </g>
</svg>