<?xml version="1.0" encoding="UTF-8"?>
<svg width="80px" height="82px" viewBox="0 0 80 82" version="1.1" xmlns="http://www.w3.org/2000/svg" xmlns:xlink="http://www.w3.org/1999/xlink">
    <!-- Generator: Sketch 52.6 (67491) - http://www.bohemiancoding.com/sketch -->
    <title>profile_image</title>
    <desc>Created with Sketch.</desc>
    <g id="Page-1" stroke="none" stroke-width="1" fill="none" fill-rule="evenodd">
        <g id="profile_image" transform="translate(0.000000, 1.000000)">
            <ellipse id="Oval" stroke="#281B13" fill="#FFFFFF" cx="40.0898876" cy="40.0136364" rx="39.3707865" ry="39.8181818"></ellipse>
            <g id="iconfinder_JD-07_2224264" transform="translate(13.483146, 17.272727)">
                <path d="M26.9663025,29.0909091 L26.9662818,29.0909091 C21.5280946,29.0909091 17.0786517,24.5883624 17.0786517,19.0852242 L17.0786517,10.0056849 C17.0786517,4.50256766 21.5280738,0 26.9662818,0 L26.9663025,0 C32.4044897,0 36.8539326,4.50254668 36.8539326,10.0056849 L36.8539326,19.0852242 C36.8539118,24.5883624 32.4044897,29.0909091 26.9663025,29.0909091 Z" id="Path" fill="#F9D9C0"></path>
                <path d="M53.9325843,46.3636364 C53.9327094,23.3333334 0.000125096793,23.3333334 0,46.3636364 L53.9325843,46.3636364 Z" id="Path" fill="#0097D3"></path>
                <path d="M26.9663025,29.0909091 L26.9662818,29.0909091 C21.5280946,29.0909091 17.0786517,24.5883624 17.0786517,19.0852242 L17.0786517,10.0056849 C17.0786517,4.50256766 21.5280738,0 26.9662818,0 L26.9663025,0 C32.4044897,0 36.8539326,4.50254668 36.8539326,10.0056849 L36.8539326,19.0852242 C36.8539118,24.5883624 32.4044897,29.0909091 26.9663025,29.0909091 Z" id="Path" stroke="#303030" stroke-width="0.7" stroke-linecap="round" stroke-linejoin="round"></path>
                <path d="M53.9325843,46.3636364 C53.9327094,23.3333334 0.000125096793,23.3333334 0,46.3636364 L53.9325843,46.3636364 Z" id="Path" stroke="#303030" stroke-width="0.7" stroke-linecap="round" stroke-linejoin="round"></path>
            </g>
        </g>
    </g>
</svg>