<svg height="512" viewBox="0 0 64 64" width="512" xmlns="http://www.w3.org/2000/svg"><path d="m51.131 11-4.373-6.556a.988.988 0 0 0 -.828-.444h-35.86a.987.987 0 0 0 -.826.441l-4.375 6.559z"/><path d="m4 53a1 1 0 0 0 1 1h31.907a18.874 18.874 0 0 1 -4.907-12.749v-9.251a1 1 0 0 1 .606-.919l14-6a1.007 1.007 0 0 1 .788 0l4.606 1.974v-6.055h-18v7a1 1 0 0 1 -1.625.781l-4.375-3.501-4.375 3.5a1 1 0 0 1 -1.625-.78v-7h-18z"/><path d="m27.375 23.219a1 1 0 0 1 1.25 0l3.375 2.7v-12.919h-8v12.919z"/><path d="m34 13h18v6h-18z"/><path d="m4 13h18v6h-18z"/><path d="m40.5 54.619 6.5 5.11 6.5-5.11a16.9 16.9 0 0 0 6.5-13.368v-8.592l-13-5.571-13 5.571v8.592a16.9 16.9 0 0 0 6.5 13.368zm-4.5-19.981a1 1 0 0 1 .606-.919l10-4.286a1 1 0 0 1 .788 0l10 4.286a1 1 0 0 1 .606.919v6.614a14.913 14.913 0 0 1 -5.732 11.794l-4.65 3.654a1 1 0 0 1 -1.236 0l-4.651-3.653a14.915 14.915 0 0 1 -5.731-11.795z"/><path d="m42.968 51.474 4.032 3.168 4.031-3.168a12.925 12.925 0 0 0 4.969-10.222v-5.952l-9-3.858-9 3.858v5.955a12.927 12.927 0 0 0 4.968 10.219zm.739-10.181 2.293 2.293 5.293-5.293 1.414 1.414-6 6a1 1 0 0 1 -1.414 0l-3-3z"/></svg>