<svg height="512" viewBox="0 0 64 64" width="512" xmlns="http://www.w3.org/2000/svg"><path d="m10 17v32h18v-32h-5v9a1 1 0 0 1 -1.555.832l-2.445-1.632-2.445 1.63a1 1 0 0 1 -1.555-.83v-9z"/><path d="m36 39h12v-6h-12zm6-4h4v2h-4zm-4 0h2v2h-2z"/><path d="m18.445 23.168a1 1 0 0 1 1.11 0l1.445.964v-7.132h-4v7.132z"/><path d="m54 27h-19a1 1 0 0 1 -.857-.485l-4.143-6.904v29.389h24zm-20 13v-8a1 1 0 0 1 1-1h14a1 1 0 0 1 1 1v8a1 1 0 0 1 -1 1h-14a1 1 0 0 1 -1-1zm12 7h-2v-2h2zm6 0h-4v-2h4z"/><path d="m8 19.611-3.234 5.389h3.234z"/><path d="m54.434 17h-23.668l4.8 8h23.667z"/></svg>