<?xml version="1.0"?>
<svg xmlns="http://www.w3.org/2000/svg" xmlns:xlink="http://www.w3.org/1999/xlink" version="1.1" id="Capa_1" x="0px" y="0px" viewBox="0 0 512 512" style="enable-background:new 0 0 512 512;" xml:space="preserve" width="512px" height="512px"><g><g>
	<path d="M108.358,369.071C111.112,373.393,115.888,376,121,376s9.888-2.607,12.642-6.929l88.535-138.516   C234.496,211.293,241,188.969,241,166c0-66.167-53.833-120-120-120S0,99.833,0,166c0,22.969,6.504,45.293,18.823,64.541   L108.358,369.071z M121,106c33.091,0,60,26.909,60,60s-26.909,60-60,60s-60-26.909-60-60S87.909,106,121,106z" data-original="#000000" class="active-path" data-old_color="#000000" fill="#F19F22"/>
	<path d="M497,16H377c-8.291,0-15,6.709-15,15c0,4.455,0,141.458,0,137.763c-12.708,4.532-22.705,14.529-27.237,27.237H316   c-41.353,0-75,33.647-75,75s33.647,75,75,75h121c24.814,0,45,20.186,45,45s-20.186,45-45,45H163.237   c-6.213-17.422-22.707-30-42.237-30c-24.814,0-45,20.186-45,45c0,8.013,2.007,15.557,5.977,22.441   C90.136,487.563,104.726,496,121,496s30.864-8.438,39.038-22.588c1.36-2.358,2.175-4.9,3.073-7.412H437c41.353,0,75-33.647,75-75   s-33.647-75-75-75H316c-24.814,0-45-20.186-45-45s20.186-45,45-45h18.763c6.213,17.422,22.707,30,42.237,30   c24.814,0,45-20.186,45-45c0-19.53-12.578-36.024-30-42.237V136h105c8.291,0,15-6.709,15-15V31C512,22.709,505.291,16,497,16z" data-original="#000000" class="active-path" data-old_color="#000000" fill="#F19F22"/>
</g></g> </svg>
