<?xml version="1.0" encoding="UTF-8"?>
<svg width="22px" height="22px" viewBox="0 0 22 22" version="1.1" xmlns="http://www.w3.org/2000/svg" xmlns:xlink="http://www.w3.org/1999/xlink">
    <!-- Generator: Sketch 52.6 (67491) - http://www.bohemiancoding.com/sketch -->
    <title>scan</title>
    <desc>Created with Sketch.</desc>
    <g id="Page-1" stroke="none" stroke-width="1" fill="none" fill-rule="evenodd">
        <g id="scan" fill="#2568EF">
            <g id="Group">
                <path d="M15.9986603,14.9982741 C15.9980545,15.5499139 15.5510132,15.9969551 14.9993734,15.997561 L7.00397854,15.997561 C6.45233876,15.9969551 6.00529747,15.5499139 6.0046916,14.9982741 C6.0046916,14.4463831 5.5572956,13.9989871 5.00540466,13.9989871 C4.45351372,13.9989871 4.00611772,14.4463831 4.00611772,14.9982741 C4.00793531,16.6531934 5.34905918,17.9943173 7.00397854,17.9961349 L14.9993734,17.9961349 C16.6542927,17.9943173 17.9954166,16.6531934 17.9972342,14.9982741 C17.9972342,14.4463831 17.5498382,13.9989871 16.9979473,13.9989871 C16.4460563,13.9989871 15.9986603,14.4463831 15.9986603,14.9982741 Z" id="Path"></path>
                <path d="M14.9982741,4.00501839 L7.00397854,4.00501839 C5.34820111,4.00623097 4.00623097,5.34820111 4.00501839,7.00397854 C4.00501839,7.55586948 4.4524144,8.00326548 5.00430533,8.00326548 C5.55619627,8.00326548 6.00359227,7.55586948 6.00359227,7.00397854 C6.00419814,6.45233876 6.45123943,6.00529747 7.00287922,6.0046916 L14.9982741,6.0046916 C15.5499139,6.00529747 15.9969551,6.45233876 15.997561,7.00397854 C15.997561,7.55586948 16.444957,8.00326548 16.9968479,8.00326548 C17.5487389,8.00326548 17.9961349,7.55586948 17.9961349,7.00397854 C17.9949232,5.34862989 16.6536222,4.00683702 14.9982741,4.00501839 Z" id="Path"></path>
                <path d="M1.00715757,5.00540466 C1.55904851,5.00540466 2.00644451,4.55800866 2.00644451,4.00611772 L2.00644451,3.00573145 C2.00705038,2.45409167 2.45409167,2.00705038 3.00573145,2.00644451 L4.00501839,2.00644451 C4.55690933,2.00644451 5.00430533,1.55904851 5.00430533,1.00715757 C5.00430533,0.455266634 4.55690933,0.00787063151 4.00501839,0.00787063151 L3.00573145,0.00787063151 C1.3508121,0.00968822718 0.00968822718,1.3508121 0.00787063151,3.00573145 L0.00787063151,4.00501839 C0.00757886259,4.27023619 0.112731759,4.52469124 0.300166046,4.71233173 C0.487600333,4.89997221 0.741939617,5.00540482 1.00715757,5.00540466 Z" id="Path"></path>
                <path d="M18.9965212,0.00787063151 L17.9972342,0.00787063151 C17.4453433,0.00787063151 16.9979473,0.455266634 16.9979473,1.00715757 C16.9979473,1.55904851 17.4453433,2.00644451 17.9972342,2.00644451 L18.9965212,2.00644451 C19.5481609,2.00705038 19.9952022,2.45409167 19.9958081,3.00573145 L19.9958081,4.00501839 C19.9958081,4.55690933 20.4432041,5.00430533 20.995095,5.00430533 C21.546986,5.00430533 21.994382,4.55690933 21.994382,4.00501839 L21.994382,3.00573145 C21.9925644,1.3508121 20.6514405,0.00968822718 18.9965212,0.00787063151 Z" id="Path"></path>
                <path d="M3.00573145,21.994382 L4.00501839,21.994382 C4.55690933,21.994382 5.00430533,21.546986 5.00430533,20.995095 C5.00430533,20.4432041 4.55690933,19.9958081 4.00501839,19.9958081 L3.00573145,19.9958081 C2.45409167,19.9952022 2.00705038,19.5481609 2.00644451,18.9965212 L2.00644451,17.9972342 C2.00644451,17.4453433 1.55904851,16.9979473 1.00715757,16.9979473 C0.455266634,16.9979473 0.00787063151,17.4453433 0.00787063151,17.9972342 L0.00787063151,18.9965212 C0.00968822718,20.6514405 1.3508121,21.9925644 3.00573145,21.994382 Z" id="Path"></path>
                <path d="M20.995095,16.9979473 C20.4432041,16.9979473 19.9958081,17.4453433 19.9958081,17.9972342 L19.9958081,18.9965212 C19.9952022,19.5481609 19.5481609,19.9952022 18.9965212,19.9958081 L17.9972342,19.9958081 C17.4453433,19.9958081 16.9979473,20.4432041 16.9979473,20.995095 C16.9979473,21.546986 17.4453433,21.994382 17.9972342,21.994382 L18.9965212,21.994382 C20.6514405,21.9925644 21.9925644,20.6514405 21.994382,18.9965212 L21.994382,17.9972342 C21.994382,17.7322068 21.8891003,17.4780343 21.7016976,17.2906316 C21.514295,17.103229 21.2601224,16.9979473 20.995095,16.9979473 Z" id="Path"></path>
                <path d="M19.9958081,11.0011263 C19.9958081,10.7360989 19.8905264,10.4819264 19.7031237,10.2945237 C19.5157211,10.1071211 19.2615485,10.0018394 18.9965212,10.0018394 L3.00573145,10.0018394 C2.45384052,10.0018394 2.00644451,10.4492354 2.00644451,11.0011263 C2.00644451,11.5530172 2.45384052,12.0004132 3.00573145,12.0004132 L18.9965212,12.0004132 C19.2615485,12.0004132 19.5157211,11.8951315 19.7031237,11.7077289 C19.8905264,11.5203262 19.9958081,11.2661537 19.9958081,11.0011263 Z" id="Path"></path>
            </g>
        </g>
    </g>
</svg>