<?xml version="1.0" encoding="iso-8859-1"?>
<!-- Generator: Adobe Illustrator 19.0.0, SVG Export Plug-In . SVG Version: 6.00 Build 0)  -->
<svg version="1.1" id="Layer_1" xmlns="http://www.w3.org/2000/svg" xmlns:xlink="http://www.w3.org/1999/xlink" x="0px" y="0px"
	 viewBox="0 0 512 512" style="enable-background:new 0 0 512 512;" xml:space="preserve">
<g>
	<g>
		<g>
			<path d="M438.251,0H320H192H73.749C33.088,0,0,33.088,0,73.749v364.501C0,478.912,33.088,512,73.749,512H192
				c11.776,0,21.333-9.557,21.333-21.333s-9.557-21.333-21.333-21.333H73.749c-17.131,0-31.083-13.952-31.083-31.083V73.749
				c0-17.131,13.952-31.083,31.083-31.083h96.917v106.667c0,7.872,4.331,15.104,11.264,18.816
				c6.933,3.691,15.339,3.285,21.909-1.067L256,132.309l52.16,34.773c3.584,2.389,7.701,3.584,11.84,3.584
				c3.456,0,6.912-0.832,10.069-2.517c6.933-3.712,11.264-10.944,11.264-18.816V42.667h96.917c17.131,0,31.083,13.952,31.083,31.083
				v75.584c0,11.776,9.557,21.333,21.333,21.333S512,161.109,512,149.333V73.749C512,33.088,478.912,0,438.251,0z"/>
			<path d="M362.667,213.333c-82.347,0-149.333,66.987-149.333,149.333S280.32,512,362.667,512S512,445.013,512,362.667
				S445.013,213.333,362.667,213.333z M426.667,384h-64c-11.776,0-21.333-9.557-21.333-21.333v-64
				c0-11.776,9.557-21.333,21.333-21.333S384,286.891,384,298.667v42.667h42.667c11.776,0,21.333,9.557,21.333,21.333
				S438.443,384,426.667,384z"/>
		</g>
	</g>
</g>
<g>
</g>
<g>
</g>
<g>
</g>
<g>
</g>
<g>
</g>
<g>
</g>
<g>
</g>
<g>
</g>
<g>
</g>
<g>
</g>
<g>
</g>
<g>
</g>
<g>
</g>
<g>
</g>
<g>
</g>
</svg>
